<svg version="1.1" id="Layer_1" xmlns="http://www.w3.org/2000/svg" xmlns:xlink="http://www.w3.org/1999/xlink" x="0px" y="0px"
	 width="100%" viewBox="0 0 1024 544" enable-background="new 0 0 1024 544" xml:space="preserve">
<path fill="#000000" opacity="1.000000" stroke="none" 
	d="
M374.290466,331.680298 
	C363.007080,317.848450 351.936615,304.303528 340.895752,290.734497 
	C339.401367,288.897949 337.957062,287.445709 335.290100,287.092682 
	C331.781555,286.628296 329.840820,284.169159 329.628937,280.507599 
	C329.428864,277.049774 330.860443,274.601654 334.230042,273.736938 
	C336.665924,273.111786 337.733551,271.412354 338.701355,269.425171 
	C345.943573,254.555054 354.766754,240.634460 364.140228,227.041855 
	C367.428162,222.274002 365.973633,218.629517 360.346008,217.351578 
	C355.826294,216.325241 353.336761,213.133224 354.057892,209.289246 
	C354.778931,205.445862 358.252808,203.118469 362.258209,203.795303 
	C366.256012,204.470856 368.657379,207.892273 367.856995,212.307739 
	C367.440094,214.607773 367.154449,216.547516 370.082245,218.006989 
	C377.898346,206.761719 387.285095,196.408890 387.496002,181.464279 
	C387.527283,179.248550 386.912903,177.765686 385.525482,176.137711 
	C382.667664,172.784409 382.945312,168.301926 385.857635,165.868408 
	C388.760773,163.442535 393.347198,163.691589 395.832184,166.410019 
	C398.636719,169.478043 398.353363,174.037842 394.664032,176.929779 
	C392.271973,178.804825 391.434418,180.989792 391.331543,183.775650 
	C391.172485,188.082474 389.733063,192.274948 390.166504,197.166840 
	C399.339874,190.586716 407.307404,183.113907 414.976318,175.325256 
	C417.333710,172.931046 416.765900,169.350876 417.537109,166.325653 
	C418.397064,162.952301 418.841888,159.470200 419.407043,156.025543 
	C419.867767,153.217392 420.028290,150.611176 418.157166,147.951111 
	C415.837433,144.653320 415.779022,140.929794 418.995789,137.999420 
	C422.209137,135.072205 425.666718,135.523788 428.965393,138.098557 
	C429.490692,138.508591 429.946350,139.046783 430.527954,139.339355 
	C433.956757,141.064133 454.524719,137.774490 457.403961,135.034378 
	C463.318787,129.405441 469.232788,123.775063 475.090790,118.087250 
	C478.249847,115.019974 481.944672,112.471268 482.172577,107.199547 
	C482.281525,104.679092 484.901794,103.153793 487.611511,102.779518 
	C490.306152,102.407333 492.673859,103.159996 494.131165,105.514038 
	C495.321655,107.437065 496.571991,108.911949 498.973663,109.342216 
	C517.732300,112.702942 535.623596,119.049500 553.566528,125.235397 
	C558.106018,126.800415 562.374817,129.254883 567.746460,126.603165 
	C571.188171,124.904175 575.427002,128.604614 575.310181,132.847061 
	C575.221252,136.073715 576.732971,137.627060 578.978577,139.311401 
	C595.426453,151.648102 595.407288,151.659622 616.316528,151.684082 
	C618.424011,151.686554 620.006348,151.156982 621.598389,149.558197 
	C625.016907,146.125244 629.502563,146.062561 632.226135,148.991974 
	C634.753784,151.710693 634.735962,156.287918 632.186890,159.045837 
	C629.366089,162.097778 625.334900,161.772079 621.591431,158.589935 
	C616.042908,153.873352 609.659790,155.596024 603.074829,155.960831 
	C604.042542,158.947159 606.206970,159.817108 607.790649,161.153107 
	C617.721619,169.530899 627.756592,177.785461 637.712524,186.133911 
	C639.169617,187.355789 640.494507,188.031372 642.579895,187.973923 
	C648.647705,187.806717 651.971436,192.223526 649.832458,197.836761 
	C648.861389,200.385284 649.261841,202.187408 650.367371,204.365463 
	C661.612366,226.520050 675.164124,247.363205 687.110413,269.117462 
	C688.096130,270.912476 689.173645,272.361206 691.491394,272.762207 
	C694.964539,273.363129 696.507324,276.032227 696.642212,279.254883 
	C696.781006,282.570984 695.016724,285.275177 691.815369,286.040314 
	C688.915100,286.733521 687.829468,288.654968 686.596436,290.862854 
	C679.122375,304.247345 671.316772,317.433899 662.815491,330.198334 
	C659.311768,335.459015 660.664917,339.704773 666.638245,342.154358 
	C671.109436,343.987885 673.133423,347.764374 671.690308,351.580750 
	C670.336426,355.161133 666.296631,357.131683 662.725342,355.953766 
	C658.806763,354.661255 656.853333,350.720062 658.364563,346.239441 
	C659.213501,343.722290 659.177124,341.785828 656.415161,339.447174 
	C653.415344,346.557861 647.294312,351.073608 644.886414,358.862549 
	C643.403992,363.657440 639.879761,368.252228 638.502502,373.566284 
	C637.525757,377.334717 636.698120,380.756744 639.250977,384.448669 
	C641.089600,387.107574 640.546753,390.334442 637.996033,392.636108 
	C635.320984,395.050018 631.926208,395.244781 629.226501,393.247955 
	C626.400146,391.157471 624.505920,391.893433 622.203247,393.695221 
	C618.268738,396.773712 614.168030,399.641235 610.261353,402.753326 
	C605.559692,406.498718 604.154480,413.953766 607.055420,419.254822 
	C608.807983,422.457275 608.547058,425.413086 605.914917,427.888855 
	C603.107178,430.529846 599.964783,430.568848 596.822327,428.336182 
	C591.783936,424.756561 583.440430,424.387726 578.483276,428.187378 
	C568.570740,435.785339 558.928955,443.735992 549.126465,451.478973 
	C547.631714,452.659607 547.409119,454.117126 547.193115,455.826355 
	C546.788269,459.029022 545.242065,461.554016 541.829895,462.234009 
	C538.573486,462.883026 535.825256,461.886902 534.215759,458.840515 
	C533.200378,456.918640 531.709839,455.885773 529.700623,455.235046 
	C505.603516,447.430969 482.097931,438.053711 458.653473,428.509521 
	C453.306427,426.332733 450.441925,427.665588 448.328461,433.228241 
	C447.231506,436.115479 445.359436,437.627472 442.314697,437.407135 
	C439.101379,437.174652 438.028625,435.016724 437.399872,432.083954 
	C435.739838,424.341370 430.942932,418.442871 424.154388,415.066406 
	C415.080688,410.553375 405.419800,407.224487 396.031403,403.337891 
	C393.621765,402.340332 391.475983,402.162262 388.882477,403.262177 
	C385.407440,404.736023 382.197693,403.579742 380.509949,400.037109 
	C378.936615,396.734650 379.195129,393.394409 382.357239,391.073822 
	C385.496613,388.769928 389.103790,389.075500 391.348206,392.021362 
	C396.241730,398.444244 403.225952,396.246887 409.941681,396.768524 
	C404.424225,390.849579 398.890930,384.945312 393.392853,379.008423 
	C383.924408,368.784271 373.349213,359.908936 361.554688,352.461487 
	C359.210785,350.981476 356.985840,350.128784 354.130493,350.246674 
	C349.629944,350.432495 346.579865,347.629974 346.266479,343.639221 
	C345.966797,339.822784 348.753143,336.659332 352.804108,336.216888 
	C356.701508,335.791138 359.927856,338.372681 360.416962,343.015747 
	C360.718658,345.879578 362.067444,347.552307 364.277740,348.958984 
	C367.791260,351.194916 371.279816,353.470978 374.750854,355.772400 
	C376.451721,356.900146 378.071533,357.482330 380.304169,357.238373 
	C384.390625,356.791870 387.130280,358.888367 387.287292,363.160431 
	C387.383362,365.773468 388.600311,367.485291 390.243713,369.221130 
	C398.147736,377.569702 406.096863,385.879028 413.828247,394.385620 
	C416.452118,397.272583 419.290070,398.986633 423.217682,399.235046 
	C427.946533,399.534180 432.653473,400.180298 437.773743,399.713501 
	C432.105774,395.185059 426.444519,390.648163 420.764679,386.134613 
	C419.486542,385.118896 417.962555,385.336090 416.451416,385.349060 
	C411.168488,385.394348 408.407257,383.070831 408.576294,378.020721 
	C408.675140,375.067963 407.723480,372.930145 405.984314,370.792297 
	C395.469818,357.867554 384.998413,344.907745 374.290466,331.680298 
M353.490692,252.428711 
	C348.913147,261.512085 339.865265,268.644531 342.810181,281.015839 
	C343.553833,284.139771 343.657715,287.153656 345.787079,289.756714 
	C356.225616,302.517426 366.618469,315.315460 377.056854,328.076263 
	C386.274445,339.344696 395.530701,350.581543 405.493073,362.713043 
	C400.432617,348.190826 395.452393,334.960388 387.410522,323.342896 
	C387.362671,324.293182 387.323639,325.697662 387.212158,327.096436 
	C387.110931,328.366547 386.545410,329.439728 385.177063,329.537018 
	C383.493652,329.656677 382.846252,328.487335 382.766144,326.995300 
	C382.685883,325.499786 382.769684,323.995087 382.680389,322.500488 
	C382.365540,317.231689 383.541626,311.862000 381.218903,306.732513 
	C375.244080,293.537628 369.399231,280.283875 363.458923,267.073273 
	C362.648010,265.269928 361.811676,263.445068 359.630798,262.725677 
	C354.335815,260.979065 353.183624,256.978058 354.570892,251.578964 
	C357.477081,248.771790 360.778534,247.620697 364.518433,249.702850 
	C367.294464,251.248367 368.822784,254.310684 367.650085,256.888336 
	C365.504150,261.605133 367.566925,265.230896 369.280396,269.127014 
	C372.424683,276.276459 375.589691,283.416931 378.784943,290.543701 
	C379.697998,292.580200 380.363251,294.797729 382.730499,296.964325 
	C382.730499,292.771484 383.163879,289.279877 382.652008,285.932831 
	C380.871338,274.289398 378.807648,262.688141 376.757874,251.087402 
	C375.916351,246.324661 376.052826,241.195267 370.565277,238.416519 
	C368.469910,237.355484 368.501434,234.448685 368.938141,232.019806 
	C369.112213,231.051682 370.224762,229.926346 368.427155,228.759109 
	C363.256470,236.378769 357.725433,243.621048 353.490692,252.428711 
M637.000061,199.002518 
	C637.000061,199.002518 637.028870,199.035233 636.730164,198.338455 
	C636.383179,194.201035 634.118713,191.693222 630.574402,189.508896 
	C614.271851,179.461517 597.700989,169.909317 580.672668,161.147156 
	C577.910645,159.725937 575.259033,158.742691 572.222412,160.522324 
	C570.571960,161.489609 568.557678,161.523972 566.929993,160.543228 
	C563.911438,158.724472 561.228638,159.749405 558.422546,160.963562 
	C549.414795,164.861099 540.375000,168.684753 531.377014,172.604462 
	C530.627563,172.930954 529.286560,172.988419 529.562805,174.629913 
	C530.436279,174.934402 531.342834,175.408783 532.300720,175.561005 
	C551.995422,178.691208 571.701538,181.750595 591.388428,184.928818 
	C593.843323,185.325134 595.644470,185.045090 597.749939,183.406067 
	C602.770264,179.497879 609.030212,182.332504 609.164612,188.605652 
	C609.236389,191.956604 610.465088,194.244003 612.678650,196.440002 
	C628.037659,211.677032 643.696167,226.610855 658.653259,242.255875 
	C663.966003,247.812988 669.769104,252.901367 675.178345,258.042175 
	C675.062195,257.754425 674.887695,257.130768 674.578125,256.583496 
	C665.976013,241.376663 657.209839,226.259750 648.829529,210.931885 
	C645.954407,205.673203 642.752197,201.151840 637.000061,199.002518 
M630.475830,360.967468 
	C636.129944,355.854767 639.788574,350.070953 638.882568,341.852173 
	C638.265991,336.258575 638.364868,330.488037 638.949280,324.880554 
	C640.175110,313.118866 636.999084,303.003174 629.346313,294.041595 
	C626.171143,290.323395 624.368591,285.539673 618.838806,284.002594 
	C615.455933,283.062317 614.776917,279.712921 615.898438,276.523163 
	C617.030701,273.303009 619.660034,271.796448 622.993896,272.299072 
	C626.473267,272.823608 628.583557,275.500610 628.053406,278.682678 
	C626.634583,287.198059 633.878174,290.661316 637.184570,296.429626 
	C638.136414,286.063385 637.962891,275.857574 636.397156,265.852631 
	C635.120911,257.697296 634.214539,249.161591 630.144775,241.801193 
	C622.411011,227.814178 613.998901,214.203537 606.165833,200.269424 
	C603.316711,195.201202 596.980103,194.530533 594.119446,189.703293 
	C593.948425,189.414734 593.190369,189.454575 592.699890,189.377609 
	C574.336548,186.495743 555.972595,183.618118 537.438049,180.713196 
	C537.741272,181.187225 537.844299,181.567657 538.077393,181.681259 
	C558.135803,191.459076 578.356934,200.917755 597.721436,212.056015 
	C599.739258,213.216599 601.480225,213.378357 603.774719,212.378708 
	C607.400513,210.799042 611.629822,212.776093 612.929688,216.096069 
	C614.195374,219.329025 612.372437,223.614410 609.180115,224.910599 
	C605.459351,226.421356 601.788574,225.062698 600.272644,220.955826 
	C599.296753,218.312164 597.563110,217.022537 595.344971,215.746964 
	C573.657227,203.275116 550.866028,193.002243 528.416382,182.048538 
	C526.111633,180.923981 524.105652,180.298325 521.454773,181.850342 
	C518.687195,183.470596 515.600464,182.843170 513.337158,180.217422 
	C511.242035,177.786743 510.979492,174.987350 512.657715,172.355698 
	C514.602173,169.306564 517.576843,168.574249 520.971924,169.782196 
	C522.383667,170.284470 523.725220,170.980057 525.293579,170.354248 
	C535.728027,166.190674 546.151123,162.004211 556.415100,156.668396 
	C539.197327,154.234009 523.421326,156.096985 509.730682,167.039276 
	C508.700470,167.862686 507.465729,168.438248 506.300751,169.083374 
	C503.470581,170.650620 501.296234,172.507278 500.381592,175.984192 
	C499.359741,179.868576 496.263336,181.664383 492.247101,180.556717 
	C488.066406,179.403671 487.108368,176.050568 487.822113,172.242584 
	C488.593933,168.124710 491.705383,167.219742 495.382782,167.461121 
	C496.830231,167.556122 498.186371,168.744614 499.718719,167.833954 
	C505.479431,164.410522 511.238312,160.983963 516.997864,157.558563 
	C515.322144,156.625076 514.008728,156.449509 512.709106,156.521561 
	C502.405975,157.092697 491.902496,156.660034 481.859253,158.599884 
	C471.052795,160.687149 462.015656,167.353806 453.608826,174.462387 
	C453.254547,174.761948 453.119659,175.324371 452.891174,175.768753 
	C440.249847,200.356049 427.632996,224.955978 414.931702,249.512238 
	C413.696838,251.899628 413.258270,253.891510 414.568634,256.496063 
	C416.379974,260.096497 414.778015,263.129028 411.478424,264.882935 
	C408.399353,266.519623 405.198181,266.106537 402.946136,263.183960 
	C400.605347,260.146118 400.543030,256.558624 403.490814,254.213440 
	C406.647247,251.702225 407.336945,248.594406 407.694214,245.092545 
	C408.993713,232.355057 410.280029,219.616180 411.548370,206.875549 
	C411.764709,204.702240 411.590485,202.786667 409.964630,200.874985 
	C406.059113,196.282837 406.467438,193.221283 411.229248,189.628967 
	C413.135193,188.191116 414.294891,186.796432 413.069305,183.864304 
	C406.210693,189.862946 399.721344,195.797104 392.924530,201.355316 
	C390.226624,203.561554 388.590454,206.082977 388.590363,209.356842 
	C388.589905,230.060501 384.338409,251.486801 398.485504,269.884308 
	C398.685699,270.144623 398.823730,270.460052 398.954620,270.765228 
	C399.909546,272.991211 401.243256,274.631775 403.799103,275.349792 
	C407.982117,276.524872 409.198608,279.765167 408.031799,283.589203 
	C406.950073,287.134430 403.932159,288.566864 400.494232,287.460876 
	C396.663086,286.228485 395.053375,283.167633 396.092133,279.167297 
	C396.533295,277.468323 396.740570,275.966980 395.891571,274.364777 
	C393.510284,269.871002 391.181915,265.349182 388.737762,260.656219 
	C385.561890,279.170105 388.972687,296.759155 392.091949,314.472290 
	C393.574219,322.889343 396.812012,329.046234 404.638611,332.804077 
	C408.025238,334.430145 410.678802,337.013977 415.150452,335.862732 
	C418.313599,335.048370 421.128937,337.487030 421.618286,340.775696 
	C422.165588,344.453766 424.405609,346.087585 427.239746,347.740265 
	C447.959198,359.822327 468.650452,371.948303 489.942291,383.017303 
	C492.097961,384.137970 493.752960,384.253662 495.971039,383.303101 
	C499.269287,381.889618 502.216492,382.943787 504.325470,385.840851 
	C506.170074,388.374786 506.473389,391.041473 504.368835,393.647858 
	C502.063995,396.502258 499.128906,396.958282 495.835785,395.762115 
	C494.457367,395.261475 493.269470,394.252258 491.601501,394.839569 
	C484.947784,397.182465 478.270721,399.459106 471.602325,401.760315 
	C487.485626,403.247986 503.222473,403.936676 518.957886,404.656311 
	C520.848328,404.742767 522.011658,403.663879 523.220886,402.459900 
	C525.817810,399.874207 528.842529,398.726807 532.240112,400.731689 
	C534.303772,401.949432 536.029724,401.324066 537.897827,400.511230 
	C547.213623,396.457672 556.493286,392.315491 565.885071,388.445709 
	C568.841492,387.227509 570.860535,385.500671 572.359680,382.681213 
	C584.870239,359.152832 596.820984,335.323151 610.142395,312.230133 
	C611.532532,309.820251 612.055664,307.513428 611.092529,304.651825 
	C609.912231,301.145294 610.930908,297.801239 614.522156,296.265045 
	C617.851990,294.840576 621.217224,295.338989 623.236694,298.814362 
	C625.285278,302.339752 624.653015,305.673767 621.348022,308.072540 
	C619.052246,309.738892 618.434998,311.817627 618.209839,314.463806 
	C617.039490,328.220825 615.830444,341.976593 614.401184,355.708466 
	C613.821777,361.274597 614.361450,366.187317 619.388184,369.767242 
	C622.884888,367.005615 626.410706,364.221008 630.475830,360.967468 
M580.197571,387.964294 
	C576.731750,389.104950 573.081238,389.902985 571.143433,393.573761 
	C570.659973,394.489594 569.540588,395.149780 568.596497,394.536255 
	C565.603210,392.591125 563.118347,394.493042 560.625549,395.514404 
	C553.697754,398.353027 546.862000,401.415497 539.971375,404.345917 
	C538.057800,405.159698 536.804504,406.264313 535.955933,408.374298 
	C533.767700,413.815277 529.317993,415.144165 524.265564,412.104767 
	C522.650879,411.133453 521.232788,410.394409 519.194519,410.685852 
	C505.049774,412.708282 490.883148,414.577209 476.730865,416.548096 
	C474.113861,416.912506 471.591400,417.298309 470.152710,420.231567 
	C469.005798,422.569916 466.536469,422.858795 464.044983,422.565186 
	C462.682831,422.404663 461.079834,421.517975 460.087982,423.272186 
	C460.163910,424.413513 460.998383,424.619354 461.765015,424.919708 
	C482.670471,433.109924 503.337067,441.925598 524.707336,448.898193 
	C529.007812,450.301331 533.166016,452.966492 537.639954,448.989807 
	C538.488953,448.235168 540.541931,448.651550 542.004395,448.823853 
	C543.377319,448.985565 544.625732,449.118439 545.784424,448.193146 
	C553.895630,441.715607 562.013916,435.247009 570.129944,428.775543 
	C552.695129,430.258514 535.745728,432.565247 518.795959,434.868469 
	C516.766479,435.144226 515.154663,435.879242 513.703674,437.560242 
	C511.084198,440.594879 507.664856,441.947723 503.955048,439.503662 
	C500.675995,437.343414 500.247559,434.048615 501.828339,430.661163 
	C503.602234,426.859741 506.906708,425.945343 510.631958,427.194946 
	C512.949036,427.972168 514.816772,427.503296 516.819885,426.513580 
	C534.885742,417.587158 552.632385,408.067444 569.856018,397.606964 
	C575.409058,394.234375 580.822510,390.582825 586.807312,385.312836 
	C583.916199,386.475311 582.393127,387.087738 580.197571,387.964294 
M490.163513,115.961304 
	C487.990814,116.960976 485.514679,114.635643 483.448822,116.523911 
	C476.753815,122.643379 469.793793,128.496735 463.115051,136.184601 
	C480.164337,134.679214 496.025146,132.100159 511.904694,129.667221 
	C513.413635,129.436035 514.065674,128.324982 514.831848,127.206009 
	C517.276978,123.634918 520.621948,122.787262 524.413818,124.677879 
	C527.433472,126.183426 528.659851,128.884277 527.766357,132.201630 
	C526.601318,136.527344 523.421814,138.030487 519.318909,137.164062 
	C516.768738,136.625504 514.833618,137.309433 512.766479,138.548492 
	C509.055756,140.772629 505.139465,142.668381 501.517517,145.022110 
	C497.481232,147.645035 492.720703,149.233276 488.889801,153.271179 
	C501.533264,152.730820 513.488586,152.198456 525.446350,151.727936 
	C527.688660,151.639694 529.666077,150.857895 531.599243,149.869949 
	C540.046570,145.552979 548.500732,141.248703 556.913330,136.864822 
	C558.433533,136.072586 560.454163,135.709763 560.860168,133.590729 
	C560.200745,132.317276 558.951965,132.118851 557.901184,131.723129 
	C539.516602,124.799545 520.908264,118.615509 501.717712,114.248970 
	C497.761444,113.348770 494.232391,113.139549 490.163513,115.961304 
M644.951660,256.604950 
	C650.596130,267.545319 656.224731,278.493988 661.900330,289.418182 
	C662.879944,291.303711 663.485474,293.919708 665.776367,294.347046 
	C670.501404,295.228363 672.917297,298.047699 673.598450,303.327942 
	C677.463562,298.613342 679.619934,293.941162 682.169983,289.522705 
	C684.564697,285.373169 683.586243,275.362671 680.283203,271.800751 
	C660.933899,250.934891 641.152100,230.488464 620.674622,210.723083 
	C619.612915,209.698257 618.604492,208.420654 616.108459,208.152069 
	C620.499512,215.764832 624.506042,222.656097 628.449158,229.583466 
	C629.510986,231.448944 631.102722,232.293625 633.022400,231.665665 
	C637.719543,230.129150 638.868347,232.641953 639.424805,236.571167 
	C640.367004,243.224304 639.857849,250.302002 644.951660,256.604950 
M452.881409,367.702423 
	C443.106049,362.022675 433.344360,356.319122 423.543793,350.683228 
	C421.580841,349.554413 419.755219,348.160706 417.074371,348.894409 
	C413.499512,349.872803 410.842163,348.160583 409.464294,344.875000 
	C407.802307,340.912018 404.422058,339.186371 400.245972,336.754669 
	C404.393097,347.041382 408.145386,356.422913 411.959167,365.779419 
	C414.096466,371.022949 422.520142,377.041138 428.161011,377.700806 
	C438.052307,378.857513 447.934235,380.100342 457.807465,381.402954 
	C465.891846,382.469543 473.957855,383.675568 482.031982,384.819763 
	C482.091553,384.538391 482.151093,384.256989 482.210663,383.975616 
	C472.648132,378.672852 463.085571,373.370056 452.881409,367.702423 
M453.454437,163.915039 
	C454.933380,161.738037 454.147095,159.534317 453.740845,157.229965 
	C453.181183,154.055466 454.040680,151.273254 457.162415,149.633530 
	C460.078369,148.101852 463.105072,148.474640 464.814453,151.003830 
	C468.624207,156.640656 473.927063,155.286972 478.118073,153.238907 
	C487.646454,148.582520 496.765228,143.050934 505.575409,137.082458 
	C505.705566,136.994308 505.556671,136.494156 505.538879,136.200928 
	C504.717773,135.400833 503.717102,135.416901 502.723389,135.553024 
	C489.563507,137.355927 476.434570,139.447342 463.231934,140.842484 
	C458.300781,141.363556 455.029236,143.617584 451.726288,146.848648 
	C443.167694,155.221054 434.624603,163.637650 425.615417,171.510284 
	C420.360962,176.101883 418.570435,181.611877 418.103424,188.161621 
	C420.373322,188.292923 421.765442,186.985306 423.290283,186.069809 
	C430.847839,181.532410 438.294617,176.801849 445.962341,172.460678 
	C449.330566,170.553711 451.844391,168.225830 453.454437,163.915039 
M541.194336,427.632141 
	C551.248718,426.276215 561.317505,425.015961 571.349182,423.508789 
	C574.551025,423.027771 577.890442,423.078979 580.702515,420.648560 
	C586.623718,415.530853 592.582764,410.401581 598.946472,405.866669 
	C605.468506,401.218994 604.604370,394.416901 605.684265,388.038513 
	C596.311646,395.322418 587.419189,402.840607 578.511353,410.340515 
	C577.034058,411.584259 576.426331,413.139069 575.983765,415.022919 
	C574.939819,419.466949 571.318665,421.963013 567.635681,420.960449 
	C563.940613,419.954651 562.033875,417.433044 562.384827,413.552673 
	C562.761841,409.385681 565.730042,407.101379 570.625732,407.793732 
	C573.305725,408.172760 575.037109,407.316284 576.892212,405.748962 
	C586.182983,397.899719 595.541382,390.130615 604.817383,382.264160 
	C605.816650,381.416718 607.513611,380.729370 606.507935,377.523407 
	C580.073853,397.693787 551.814148,414.077698 522.969788,429.556946 
	C528.746460,428.931946 534.523132,428.306946 541.194336,427.632141 
M608.037720,325.448120 
	C597.208313,344.203522 587.603882,363.592285 577.971069,383.189453 
	C586.146240,380.150696 594.193726,377.242279 601.292297,372.813019 
	C604.945190,370.533691 608.737854,365.800446 609.304993,361.734894 
	C611.344666,347.115204 612.037415,332.307587 613.239136,317.570953 
	C613.003601,317.532623 612.768005,317.494293 612.532410,317.455963 
	C611.146118,319.904572 609.759827,322.353180 608.037720,325.448120 
M413.327332,232.689819 
	C413.027649,236.439484 412.727966,240.189148 412.374542,244.611023 
	C423.944702,222.198807 435.205261,200.386337 446.465820,178.573883 
	C442.040466,180.015732 438.193359,181.924301 434.741943,184.387344 
	C429.093719,188.418045 420.876617,190.038223 420.252411,199.082077 
	C420.223633,199.498596 419.769104,200.007050 419.375885,200.258026 
	C415.978882,202.426224 415.659668,205.898315 415.355804,209.421066 
	C414.713013,216.873398 414.020905,224.321472 413.327332,232.689819 
M470.226868,397.659698 
	C476.266296,395.546967 482.305756,393.434204 488.345184,391.321472 
	C467.002991,387.005402 445.866211,383.266663 422.865936,381.931976 
	C428.957001,386.819427 433.911011,390.701874 438.756470,394.715302 
	C441.956116,397.365448 444.902039,400.291595 449.703125,398.738922 
	C450.623810,398.441193 452.331757,398.863556 452.931122,399.578522 
	C455.742493,402.932098 458.724396,401.674774 461.894836,400.419159 
	C464.366547,399.440338 466.941254,398.721527 470.226868,397.659698 
M644.228821,277.468719 
	C646.763000,288.484650 649.278870,299.504852 651.856384,310.510651 
	C652.151917,311.772522 652.456421,313.636810 653.325012,314.062653 
	C659.333313,317.008423 659.853821,321.428223 657.362732,326.939728 
	C657.255127,327.177765 657.766602,327.695587 658.491394,328.954468 
	C662.984741,321.569641 667.155579,314.714935 671.603760,307.404297 
	C663.710693,310.358337 657.530334,307.090546 659.146973,300.946869 
	C660.243530,296.779877 658.917664,293.920929 657.289368,290.688812 
	C654.442139,285.036926 651.645081,279.359650 648.774292,273.719818 
	C646.644165,269.535065 644.430786,265.392731 642.254517,261.231476 
	C641.418457,266.756195 642.988647,271.662476 644.228821,277.468719 
M439.917999,416.469696 
	C443.172821,417.747498 446.416351,419.055084 449.685333,420.295685 
	C454.033722,421.946014 457.117004,420.566284 458.670288,416.335602 
	C460.867249,410.351532 463.254181,409.345764 469.307556,411.806427 
	C470.218140,412.176605 471.229706,412.743591 472.125244,412.637024 
	C481.627075,411.506348 491.114807,410.257782 500.606445,409.041687 
	C487.551819,407.092651 474.565430,407.183472 461.580048,407.129486 
	C458.779480,407.117859 456.651611,407.631226 454.602386,409.944305 
	C451.079468,413.920929 446.129852,413.115692 443.391876,408.569214 
	C442.649231,407.336029 442.550171,405.526886 440.623016,405.396667 
	C435.069794,405.021332 429.567047,403.633179 423.619171,404.306519 
	C426.970062,411.131561 432.695984,414.166290 439.917999,416.469696 
M636.164673,363.828094 
	C634.119446,362.660492 633.292419,364.662842 632.189758,365.523926 
	C627.226440,369.400024 622.557922,373.673798 617.448853,377.338104 
	C610.653137,382.212036 611.046448,389.574188 609.081482,397.492340 
	C621.614563,388.141968 635.182129,381.374786 636.164673,363.828094 
M579.950195,145.537598 
	C575.146240,140.620499 568.450867,137.843872 562.584778,139.463959 
	C554.419983,141.718872 547.041565,146.820648 539.326538,150.703918 
	C545.260193,151.690781 550.872559,151.623840 556.482239,151.716583 
	C559.705505,151.769867 562.491333,151.468491 565.019043,148.851624 
	C567.413635,146.372665 570.928894,146.089981 573.642334,148.431595 
	C577.153320,151.461609 580.838928,150.740585 585.798035,150.205582 
	C583.520081,148.381180 582.016296,147.176804 579.950195,145.537598 
M423.934479,154.504501 
	C423.203156,158.972336 421.984314,163.388107 422.124481,168.860107 
	C431.248291,160.322739 440.054169,152.709763 448.224060,143.624557 
	C443.661255,142.925903 440.076874,143.956848 436.446777,144.137939 
	C430.009918,144.459045 427.402802,149.474243 423.934479,154.504501 
M645.333069,324.630493 
	C643.903625,322.307526 645.552917,319.268066 643.653381,316.260590 
	C643.653381,327.558899 643.653381,338.041656 643.653381,350.056122 
	C647.335266,344.774902 650.121094,340.689697 653.002441,336.673004 
	C655.504883,333.184540 654.022278,330.690277 650.909241,328.950897 
	C649.031494,327.901703 646.907593,327.336517 645.333069,324.630493 
M373.889008,225.932709 
	C383.221649,226.497925 383.828888,232.916275 383.633911,240.053787 
	C383.633911,229.569992 383.633911,219.086182 383.633911,207.733398 
	C379.042023,212.552811 375.960815,217.395981 372.875916,222.232346 
	C372.128937,223.403412 372.629303,224.457504 373.889008,225.932709 
M593.233521,155.817886 
	C589.343262,154.879211 585.466003,155.243103 580.060303,155.620880 
	C592.420776,162.328415 603.465027,168.321686 614.509277,174.314957 
	C608.524780,167.102051 601.135986,161.753540 593.233521,155.817886 
M594.627075,415.158783 
	C592.984741,416.924561 590.326477,417.672974 589.374268,420.253967 
	C594.303528,420.725983 600.301575,415.824707 600.133301,411.196320 
	C598.363892,412.444519 596.756104,413.578766 594.627075,415.158783 
M643.909119,297.623596 
	C643.541504,296.100189 643.173828,294.576752 642.806213,293.053314 
	C643.320557,298.941132 641.119141,305.417023 647.031494,310.112549 
	C646.059692,306.196899 645.087830,302.281281 643.909119,297.623596 
M441.481079,426.352692 
	C443.531891,426.872955 445.622528,427.590271 447.573486,424.863525 
	C444.348022,422.725128 441.112183,421.415283 436.592194,420.554871 
	C438.443512,422.870758 439.668762,424.403473 441.481079,426.352692 
M408.098694,403.309113 
	C411.559357,404.729767 415.020020,406.150452 419.309906,407.911560 
	C415.461365,402.493195 411.950409,401.233734 408.098694,403.309113 
M382.700806,259.485107 
	C382.956299,260.555542 383.211792,261.626007 383.467285,262.696442 
	C383.069794,257.565613 385.149902,252.022537 380.591064,246.680206 
	C381.342773,251.309814 381.946716,255.029587 382.700806,259.485107 
z"/>
<path fill="#000000" opacity="1.000000" stroke="none" 
	d="
M664.562439,200.931808 
	C670.924377,200.546402 673.964111,202.383652 674.142395,206.591766 
	C674.301025,210.336868 672.612183,213.092041 668.874146,214.049744 
	C665.354553,214.951477 662.514954,213.553818 661.054993,210.296432 
	C659.328125,206.443771 660.186829,203.143677 664.562439,200.931808 
z"/>
<path fill="#000000" opacity="1.000000" stroke="none" 
	d="
M467.555542,437.357910 
	C471.077911,435.081512 474.260101,435.128418 476.895386,437.908081 
	C479.173523,440.311035 479.376892,443.327209 477.730591,446.203583 
	C476.131744,448.997101 473.431091,449.740479 470.422028,449.221283 
	C465.171234,448.315369 463.708649,442.858185 467.555542,437.357910 
z"/>
<path fill="#000000" opacity="1.000000" stroke="none" 
	d="
M528.179077,109.419144 
	C523.236816,110.508621 520.597961,108.982239 520.827515,105.542572 
	C520.975037,103.332443 522.176331,101.798981 524.306091,101.164337 
	C526.278931,100.576477 527.952148,101.266991 529.127930,102.887383 
	C530.742432,105.112289 530.405090,107.238571 528.179077,109.419144 
z"/>
<path fill="#000000" opacity="1.000000" stroke="none" 
	d="
M351.006287,322.360504 
	C347.466736,323.889221 344.715637,323.648651 343.661835,319.808929 
	C343.094330,317.741028 343.898102,315.886200 345.838379,314.703644 
	C347.844788,313.480804 349.712799,313.876526 351.247467,315.460236 
	C353.306702,317.585236 353.232727,319.870331 351.006287,322.360504 
z"/>
<path fill="#000000" opacity="1.000000" stroke="none" 
	d="
M341.070740,246.042938 
	C342.776306,249.069550 342.083649,251.305191 339.499847,252.701309 
	C337.422302,253.823914 335.200562,253.566742 333.649658,251.581589 
	C332.116272,249.618896 332.265869,247.414139 333.911682,245.643005 
	C336.126709,243.259293 338.558319,243.368347 341.070740,246.042938 
z"/>
<path fill="#000000" opacity="1.000000" stroke="none" 
	d="
M649.791016,172.544617 
	C652.111816,175.827087 651.926392,178.550766 648.458435,180.178879 
	C645.778809,181.436829 643.630554,180.269806 642.368225,177.617493 
	C641.557373,175.913651 641.948486,174.309570 643.198792,173.041763 
	C645.045349,171.169357 647.202148,170.860779 649.791016,172.544617 
z"/>
<path fill="#000000" opacity="1.000000" stroke="none" 
	d="
M659.888367,372.739655 
	C658.901001,375.897552 657.050781,377.282410 654.117065,376.504150 
	C651.706482,375.864716 650.604614,374.065338 650.788147,371.599518 
	C650.960022,369.290192 652.261353,367.899933 654.600769,367.764008 
	C657.797058,367.578247 659.609375,369.139404 659.888367,372.739655 
z"/>
<path fill="#000000" opacity="1.000000" stroke="none" 
	d="
M375.311096,193.537018 
	C369.957886,194.553818 367.034485,192.254578 368.256592,188.481155 
	C368.813324,186.762161 369.993225,185.615021 371.775024,185.301819 
	C373.769165,184.951324 375.434967,185.733917 376.478973,187.422150 
	C377.784393,189.533096 377.421692,191.546539 375.311096,193.537018 
z"/>
<path fill="#000000" opacity="1.000000" stroke="none" 
	d="
M678.322205,229.240875 
	C679.556030,226.152557 681.597473,225.088257 684.329041,226.158829 
	C686.544739,227.027206 687.558655,228.929291 687.077942,231.327011 
	C686.628540,233.568970 684.927246,234.699738 682.820129,234.723602 
	C679.538940,234.760757 678.252441,232.672699 678.322205,229.240875 
z"/>
<path fill="#000000" opacity="1.000000" stroke="none" 
	d="
M367.678040,369.771790 
	C369.750977,367.482483 371.892761,367.087585 374.132660,368.582855 
	C375.600861,369.562988 376.296295,371.132355 375.911896,372.917572 
	C375.349976,375.527222 373.626617,377.221863 370.974670,376.720978 
	C367.407379,376.047241 365.971008,373.732513 367.678040,369.771790 
z"/>
<path fill="#000000" opacity="1.000000" stroke="none" 
	d="
M553.492065,117.353912 
	C551.314758,114.739067 551.389771,112.436020 553.791809,110.606972 
	C555.683228,109.166771 557.885742,109.211494 559.734741,110.808701 
	C561.461975,112.300690 561.693604,114.282257 560.530457,116.203354 
	C558.838440,118.998047 556.492981,119.369400 553.492065,117.353912 
z"/>
<path fill="#000000" opacity="1.000000" stroke="none" 
	d="
M690.465576,306.421265 
	C693.711243,308.225525 694.928894,310.567780 692.643372,313.391541 
	C690.857300,315.598145 688.374634,315.730286 686.100708,313.837555 
	C684.541321,312.539490 684.181824,310.735138 684.921936,308.919922 
	C685.850342,306.643097 687.712158,305.833740 690.465576,306.421265 
z"/>
<path fill="#000000" opacity="1.000000" stroke="none" 
	d="
M409.854034,155.678711 
	C407.130157,159.824600 404.120697,160.610779 401.960480,158.048889 
	C400.702026,156.556473 400.350830,154.805176 401.189880,152.994904 
	C402.067383,151.101685 403.744629,150.540817 405.689880,150.734314 
	C408.411652,151.005081 409.700684,152.672989 409.854034,155.678711 
z"/>
<path fill="#000000" opacity="1.000000" stroke="none" 
	d="
M488.482391,455.963257 
	C489.119202,452.626709 491.002106,451.288910 493.899841,451.966553 
	C496.283234,452.523926 497.406830,454.352570 497.181488,456.822998 
	C496.971558,459.124481 495.499695,460.529938 493.344177,460.725891 
	C490.348267,460.998260 488.794830,459.237823 488.482391,455.963257 
z"/>
<path fill="#000000" opacity="1.000000" stroke="none" 
	d="
M603.523804,136.254196 
	C603.382507,139.647614 601.623291,141.200363 598.743591,140.979050 
	C596.622131,140.815979 595.124512,139.344574 594.858215,137.107254 
	C594.566101,134.653336 595.724182,132.813904 598.063049,132.204803 
	C601.052795,131.426224 602.667114,133.177750 603.523804,136.254196 
z"/>
<path fill="#000000" opacity="1.000000" stroke="none" 
	d="
M519.888916,389.355011 
	C521.560364,386.007782 523.888794,384.860016 526.907776,386.567657 
	C529.176941,387.851105 529.963440,390.109406 528.881714,392.526794 
	C527.785645,394.976288 525.513306,395.626099 523.060791,395.018433 
	C520.410645,394.361786 519.408020,392.430756 519.888916,389.355011 
z"/>
<path fill="#000000" opacity="1.000000" stroke="none" 
	d="
M411.087982,322.782135 
	C407.582520,322.115784 406.085632,320.245575 406.763733,317.035339 
	C407.237854,314.790680 408.820679,313.689117 411.109680,313.741699 
	C413.628571,313.799561 415.228363,315.187836 415.593811,317.596741 
	C416.058044,320.656891 414.204834,322.152069 411.087982,322.782135 
z"/>
<path fill="#000000" opacity="1.000000" stroke="none" 
	d="
M613.305908,242.551498 
	C614.228088,245.820648 613.073792,247.834274 610.315308,248.634125 
	C607.970337,249.314072 606.041565,248.151443 605.123596,245.974457 
	C604.194153,243.770111 604.813354,241.599213 606.922180,240.417435 
	C609.408569,239.024048 611.669678,239.573761 613.305908,242.551498 
z"/>
<path fill="#000000" opacity="1.000000" stroke="none" 
	d="
M569.002930,365.926086 
	C570.657532,369.310883 569.368530,371.363373 566.627563,372.622406 
	C564.512024,373.594208 562.715637,372.625183 561.533020,370.843323 
	C560.171814,368.792328 560.509766,366.676636 562.322510,365.075226 
	C564.554199,363.103577 566.799988,363.421143 569.002930,365.926086 
z"/>
<path fill="#000000" opacity="1.000000" stroke="none" 
	d="
M546.201111,379.319275 
	C547.972473,375.908447 550.358948,374.916077 553.155701,377.223480 
	C555.425293,379.095947 555.375061,381.574310 553.332458,383.725250 
	C552.269592,384.844543 550.809570,385.317810 549.245056,384.690826 
	C547.001709,383.791779 545.866150,382.157623 546.201111,379.319275 
z"/>
<path fill="#000000" opacity="1.000000" stroke="none" 
	d="
M466.444458,190.066650 
	C466.244446,193.451660 464.536011,195.070358 461.603180,194.930161 
	C459.640625,194.836349 458.232605,193.526291 457.851196,191.474823 
	C457.443756,189.283325 458.104675,187.348480 460.162933,186.433792 
	C463.437012,184.978806 465.626160,186.135452 466.444458,190.066650 
z"/>
<path fill="#000000" opacity="1.000000" stroke="none" 
	d="
M624.035400,334.699432 
	C623.394531,331.992279 623.867554,329.985413 626.175476,328.952545 
	C627.745117,328.250061 629.404297,328.417084 630.798706,329.589874 
	C632.200195,330.768616 632.549072,332.338470 632.175354,334.046021 
	C631.375366,337.701508 627.996033,338.127991 624.035400,334.699432 
z"/>
<path fill="#000000" opacity="1.000000" stroke="none" 
	d="
M397.206238,226.481323 
	C396.360931,223.508072 397.148010,221.522705 399.609589,220.351624 
	C401.117340,219.634323 402.538116,220.024231 403.761322,221.073044 
	C405.334656,222.422058 405.613464,224.213562 405.059692,226.067429 
	C404.000916,229.611771 400.886871,229.901367 397.206238,226.481323 
z"/>
<path fill="#000000" opacity="1.000000" stroke="none" 
	d="
M636.984863,198.986938 
	C637.033997,200.281357 637.320862,201.627167 637.117065,202.894073 
	C636.665588,205.701599 634.944763,207.400574 632.001099,207.062668 
	C629.364624,206.760025 627.744324,204.960068 627.985107,202.324493 
	C628.266235,199.247314 630.309570,197.707535 633.445374,197.980438 
	C634.405579,198.064011 635.332886,198.525482 636.652100,198.924561 
	C637.028870,199.035233 637.000061,199.002518 636.984863,198.986938 
z"/>
<path fill="#000000" opacity="1.000000" stroke="none" 
	d="
M574.786377,174.029678 
	C575.344849,171.236557 576.775024,169.875595 579.268616,169.824692 
	C580.892883,169.791519 582.193726,170.545990 582.868713,171.985550 
	C584.050049,174.504791 584.039124,177.053314 581.125244,178.213852 
	C577.698914,179.578491 575.388550,178.220108 574.786377,174.029678 
z"/>
<path fill="#000000" opacity="1.000000" stroke="none" 
	d="
M489.778290,418.850647 
	C493.692078,420.312469 494.658783,422.854675 492.833679,426.063385 
	C491.465729,428.468353 489.135498,428.642029 486.728638,427.447235 
	C484.794250,426.487030 484.293121,424.800903 484.585846,422.833130 
	C484.990479,420.112549 486.636383,418.771973 489.778290,418.850647 
z"/>
<path fill="#000000" opacity="1.000000" stroke="none" 
	d="
M544.008911,137.874603 
	C543.088745,140.969345 541.447144,142.686081 538.423828,141.791702 
	C536.341736,141.175781 535.096008,139.482391 535.098206,137.291931 
	C535.100525,134.996216 536.643127,133.545242 538.731567,133.111786 
	C542.116516,132.409241 543.575317,134.437210 544.008911,137.874603 
z"/>
<path fill="#000000" opacity="1.000000" stroke="none" 
	d="
M372.001556,304.077454 
	C375.445282,304.553253 377.147247,306.405945 376.946716,309.447174 
	C376.807190,311.562469 375.410889,313.029510 373.115540,313.290344 
	C370.764313,313.557526 368.698639,312.955902 367.994690,310.517395 
	C367.073151,307.325073 368.348999,305.085571 372.001556,304.077454 
z"/>
<path fill="#000000" opacity="1.000000" stroke="none" 
	d="
M654.939270,253.455719 
	C653.201965,255.999176 651.198120,256.652222 648.800354,255.322891 
	C646.888977,254.263184 646.016052,252.565079 646.507324,250.376312 
	C646.954834,248.381866 648.458069,247.149536 650.320374,247.044525 
	C654.535034,246.806915 655.695190,249.331345 654.939270,253.455719 
z"/>
<path fill="#000000" opacity="1.000000" stroke="none" 
	d="
M438.390900,372.899017 
	C433.490875,373.011719 431.396515,371.223236 432.239441,368.051361 
	C432.690491,366.354034 433.698090,365.070801 435.560425,364.771088 
	C437.316406,364.488525 438.929047,364.821625 439.853882,366.492950 
	C441.140076,368.817291 440.776581,370.940155 438.390900,372.899017 
z"/>
</svg>